<svg width="27" height="26" viewBox="0 0 27 26" fill="none" xmlns="http://www.w3.org/2000/svg">
<path d="M16.9667 14.2222H10.0337" stroke="#FCBF22" stroke-width="3" stroke-linecap="round"/>
<path d="M13.5002 10.5555V17.8889" stroke="#FCBF22" stroke-width="3" stroke-linecap="round"/>
<path d="M10.9323 24H16.0678C19.6743 24 21.4774 24 22.7727 23.1012C23.3334 22.712 23.8149 22.212 24.1896 21.6297C25.0551 20.2846 25.0551 18.4119 25.0551 14.6666C25.0551 10.9215 25.0551 9.04881 24.1896 7.70362C23.8149 7.12128 23.3334 6.62127 22.7727 6.23216C21.9403 5.6546 20.8984 5.44817 19.303 5.37438C18.5416 5.37438 17.8862 4.77528 17.7369 4C17.5129 2.83709 16.5297 2 15.3878 2H11.6123C10.4704 2 9.48719 2.83709 9.26323 4C9.11393 4.77528 8.45845 5.37438 7.69715 5.37438C6.10178 5.44817 5.05978 5.6546 4.22746 6.23216C3.66671 6.62127 3.18524 7.12128 2.81056 7.70362C1.94507 9.04881 1.94507 10.9215 1.94507 14.6666C1.94507 18.4119 1.94507 20.2846 2.81056 21.6297C3.18524 22.212 3.66671 22.712 4.22746 23.1012C5.52277 24 7.32594 24 10.9323 24Z" stroke="#FCBF22" stroke-width="3"/>
<path d="M21.5886 10.5555H20.4331" stroke="#FCBF22" stroke-width="3" stroke-linecap="round"/>
</svg>
