<svg width="50" height="50" viewBox="0 0 50 50" fill="none" xmlns="http://www.w3.org/2000/svg">
<g clip-path="url(#clip0_525_2)">
<path d="M25 0C11.1914 0 0 11.1914 0 25C0 38.8086 11.1914 50 25 50C38.8086 50 50 38.8086 50 25C50 11.1914 38.8086 0 25 0ZM25 5.29297C30.332 5.29297 34.6582 9.61914 34.6582 14.9512C34.6582 20.2832 30.332 24.6094 25 24.6094C19.668 24.6094 15.3418 20.2832 15.3418 14.9512C15.3418 9.61914 19.668 5.30273 25 5.29297ZM40.8691 36.6113C37.2949 41.5137 31.5137 44.6973 25 44.6973C18.4863 44.6973 12.7051 41.5137 9.13086 36.6113C8.57422 35.8496 8.41797 34.873 8.70117 33.9844L9.69727 30.8887C10.7617 27.5488 14.3848 25.7715 17.6855 26.9629C19.6289 27.666 22.0703 28.1934 25 28.1934C27.9297 28.1934 30.3809 27.666 32.3145 26.9629C35.6055 25.7715 39.2285 27.5488 40.3027 30.8887L41.2891 33.9844C41.582 34.8828 41.416 35.8594 40.8691 36.6113Z" fill="url(#paint0_linear_525_2)"/>
</g>
<defs>
<linearGradient id="paint0_linear_525_2" x1="7.32256" y1="7.32246" x2="42.6775" y2="42.6774" gradientUnits="userSpaceOnUse">
<stop stop-color="#1D222A"/>
</linearGradient>
<clipPath id="clip0_525_2">
<rect width="50" height="50" fill="white"/>
</clipPath>
</defs>
</svg>
