<svg width="23" height="22" viewBox="0 0 23 22" fill="none" xmlns="http://www.w3.org/2000/svg">
<path fill-rule="evenodd" clip-rule="evenodd" d="M0.5 3.66667C0.5 1.64163 2.14163 0 4.16667 0H18.8333C20.8584 0 22.5 1.64163 22.5 3.66667V17.1099V17.1123V18.3333C22.5 20.3584 20.8584 22 18.8333 22H4.16667C2.14163 22 0.5 20.3584 0.5 18.3333V13.4444V3.66667ZM20.0556 3.66667V14.1604L16.0309 10.1358C15.5536 9.65849 14.7797 9.65849 14.3024 10.1358L12.7222 11.716L8.08647 7.0802C7.60915 6.6029 6.83529 6.6029 6.35798 7.0802L2.94444 10.4938V3.66667C2.94444 2.99166 3.49166 2.44444 4.16667 2.44444H18.8333C19.5084 2.44444 20.0556 2.99166 20.0556 3.66667ZM2.94444 18.3333V13.9507L7.22222 9.67291L11.858 14.3087C12.3353 14.786 13.1092 14.786 13.5865 14.3087L15.1667 12.7285L20.0556 17.6174V18.3333C20.0556 19.0084 19.5084 19.5556 18.8333 19.5556H4.16667C3.49166 19.5556 2.94444 19.0084 2.94444 18.3333ZM14.5556 8.55556C15.568 8.55556 16.3889 7.73475 16.3889 6.72222C16.3889 5.7097 15.568 4.88889 14.5556 4.88889C13.5431 4.88889 12.7222 5.7097 12.7222 6.72222C12.7222 7.73475 13.5431 8.55556 14.5556 8.55556Z" fill="#FCBF22"/>
</svg>
