<svg width="40" height="40" viewBox="0 0 40 40" fill="none" xmlns="http://www.w3.org/2000/svg">
<rect x="0.75" y="0.75" width="38.5" height="38.5" rx="19.25" stroke="#E5E5E5" stroke-width="1.5"/>
<path d="M20.0039 12V20.4986M26.365 14.4929C27.6234 15.6816 28.4803 17.1959 28.8273 18.8444C29.1743 20.493 28.9959 22.2016 28.3146 23.7544C27.6334 25.3071 26.4798 26.6343 24.9998 27.568C23.5198 28.5017 21.7799 29 20 29C18.2201 29 16.4802 28.5017 15.0002 27.568C13.5202 26.6343 12.3666 25.3071 11.6854 23.7544C11.0041 22.2016 10.8257 20.493 11.1727 18.8444C11.5197 17.1959 12.3766 15.6816 13.635 14.4929" stroke="black" stroke-width="2" stroke-linecap="round" stroke-linejoin="round"/>
</svg>
