<svg width="512" height="512" viewBox="0 0 512 512" fill="none" xmlns="http://www.w3.org/2000/svg">
<g clip-path="url(#clip0_423_2)">
<path d="M256 0C114.833 0 0 114.833 0 256C0 397.167 114.833 512 256 512C397.167 512 512 397.147 512 256C512 114.853 397.167 0 256 0ZM256 472.341C136.725 472.341 39.659 375.295 39.659 256C39.659 136.705 136.725 39.659 256 39.659C375.295 39.659 472.341 136.705 472.341 256C472.341 375.295 375.275 472.341 256 472.341Z" fill="black"/>
<path d="M373.451 166.965C365.38 159.628 352.828 160.203 345.452 168.313L224.491 301.509L166.053 242.1C158.339 234.287 145.807 234.168 138.014 241.862C130.201 249.536 130.082 262.088 137.776 269.901L210.927 344.262C212.771 346.14 214.971 347.632 217.399 348.65C219.827 349.668 222.433 350.192 225.065 350.191C225.184 350.191 225.323 350.191 225.442 350.211C228.142 350.157 230.803 349.552 233.261 348.434C235.72 347.316 237.924 345.707 239.739 343.707L374.798 194.985C382.156 186.854 381.561 174.322 373.451 166.965Z" fill="black"/>
</g>
<defs>
<clipPath id="clip0_423_2">
<rect width="512" height="512" fill="white"/>
</clipPath>
</defs>
</svg>
